<?xml version="1.0"?>
<svg xmlns="http://www.w3.org/2000/svg" id="Layer_1" data-name="Layer 1" viewBox="0 0 512 512" width="512" height="512"><title>certified User</title><path d="M231.971,370.981h-8.742a7,7,0,0,0,0,14h8.742a7,7,0,0,0,0-14Z"/><path d="M316.14,160.11a27.864,27.864,0,0,0-.8-6.623,22.411,22.411,0,0,0-13.775-15.737l.13-35.613a98.53,98.53,0,1,0-197.059-.586l.091,31.338c0,.04,0,.079,0,.119v.046l.107,4.737A22.406,22.406,0,0,0,91.17,153.485a27.806,27.806,0,0,0,14.3,31.341L78.48,286.235a7,7,0,0,0,5.093,8.6,177.35,177.35,0,0,0,22.216,3.49,7.012,7.012,0,0,0,5.8-2.15l13.487-14.239.51,9.535a6.985,6.985,0,0,0,.329,1.758L90.717,305.155a50.725,50.725,0,0,0-34.46,48.064v54.012a7,7,0,0,0,7,7H307.6V502a7,7,0,0,0,11.839,5.057l49.3-47.18,49.3,47.18A7,7,0,0,0,429.884,502V413.912a83.577,83.577,0,0,0,25.859-60.3c0-46.789-39.028-84.854-87-84.854a88.116,88.116,0,0,0-45.028,12.273l-20.144-97.674A27.712,27.712,0,0,0,316.14,160.11ZM234.8,95.953c6.722,12.927,17.7,24.051,31.361,32.081A104.091,104.091,0,0,1,224.494,105.3,123.333,123.333,0,0,0,234.8,95.953ZM203.17,17A84.529,84.529,0,0,1,287.7,102.069l-.075,20.564c-20.147-7.084-36-21.128-42.716-38.195a158.43,158.43,0,0,0,13.261-19.92,7,7,0,1,0-12.189-6.887c-32.118,56.849-78.418,59.435-100.669,60.679l-.331.018c-5.842.327-11.335,4.4-14.338,10.628a6.828,6.828,0,0,1-3.234,3.168,6.981,6.981,0,0,1-7.911-1.367l-.774-.774-.083-28.452A84.627,84.627,0,0,1,203.17,17Zm-98.4,139.816a8.644,8.644,0,0,1,7.838-6.607,7,7,0,0,0,5.828-4.294,20.936,20.936,0,0,0,24.819-10.882,4.991,4.991,0,0,1,2.508-2.727l.33-.018c14.231-.8,40.382-2.257,66.754-18.688a118.1,118.1,0,0,0,75.134,32.041,7,7,0,0,0,5.927,4.568,8.645,8.645,0,0,1,7.839,6.61,13.794,13.794,0,0,1-10.987,16.859,7,7,0,0,0-5.793,6.9v.124a84.043,84.043,0,0,1-21.658,55.641c-14.135,15.622-32.633,24.226-52.084,24.226H195.29c-19.451,0-37.948-8.6-52.084-24.226A84.038,84.038,0,0,1,121.548,180.7v-.124a7,7,0,0,0-5.793-6.9,13.8,13.8,0,0,1-10.987-16.862Zm59.889,138.061L196.169,326.3v23.532l-50.055-48.675Zm45.512,74.657,65.122-63.325,17.561,5.951a82.991,82.991,0,0,0,3.2,88.071H210.169Zm91.019-69.33-34.223-11.6,7.178-8.811,17.769,16.06a7,7,0,0,0,4.693,1.807,6.767,6.767,0,0,0,.852-.053l6.732-.825Q302.643,298.453,301.188,300.2Zm-40.789.958-50.23,48.845V326.479l31.687-31.6Zm-27.41-17.214L203.257,313.6l-29.733-29.652V271.542a79.783,79.783,0,0,0,21.766,3.022h15.933a79.794,79.794,0,0,0,21.766-3.022Zm-91.569.4-2.2-.085-1.034-19.349a7,7,0,0,0-12.073-4.439l-22.3,23.542c-3.909-.462-7.237-.963-9.879-1.411l18.883-70.955a98.625,98.625,0,0,0,20.008,34.075,89.873,89.873,0,0,0,26.7,20.411v15.693l-8.235,2.792C147.955,284.594,144.636,284.477,141.42,284.352ZM70.257,353.219a36.732,36.732,0,0,1,24.954-34.805l36.013-12.206,64.945,63.155v30.868H70.257ZM415.884,485.612l-42.3-40.481a7,7,0,0,0-9.68,0l-42.3,40.481V424.95a88.834,88.834,0,0,0,94.281-.057Zm25.859-132c0,39.069-32.748,70.854-73,70.854a73.4,73.4,0,0,1-52.989-22.12,69.455,69.455,0,0,1-20.011-48.734c0-39.069,32.748-70.854,73-70.854S441.743,314.538,441.743,353.607ZM298.927,283.324l-20.864-18.857a7,7,0,0,0-10.12.772l-15.13,18.57-5.824-1.975V266.141a89.856,89.856,0,0,0,26.7-20.411,98.725,98.725,0,0,0,20.88-36.722l15.056,73Z"/><path d="M320.57,346.988l23.03,16.284-8.772,26.273a7,7,0,0,0,10.681,7.933l23.234-16.428,23.234,16.427a7,7,0,0,0,10.68-7.932l-8.771-26.273,23.03-16.283a7,7,0,0,0-4.041-12.716H384.2l-8.821-26.42a7,7,0,0,0-13.279,0l-8.822,26.42H324.611a7,7,0,0,0-4.041,12.715Zm37.755,1.285a7,7,0,0,0,6.64-4.783l3.778-11.317,3.778,11.317a7,7,0,0,0,6.64,4.783H390.85l-9.291,6.569a7,7,0,0,0-2.6,7.933l3.65,10.933-9.826-6.947a7,7,0,0,0-8.082,0l-9.827,6.948,3.65-10.934a7,7,0,0,0-2.6-7.932l-9.291-6.57Z"/></svg>
